<svg width="44" height="42" viewBox="0 0 44 42" fill="none" xmlns="http://www.w3.org/2000/svg">
<path d="M18.9 18.7205C18.7205 18.1641 18.559 17.6256 18.3795 17.0692C18.2 16.5128 18.0385 15.9923 17.8949 15.4718C17.7513 14.9692 17.6256 14.5026 17.5 14.0718H17.4641C17.3026 14.8436 17.1051 15.6154 16.8538 16.3872C16.5846 17.2487 16.3154 18.1462 16.0282 19.0436C15.7769 19.959 15.5077 20.8026 15.2385 21.5564H19.7974C19.6897 21.1777 19.5462 20.7308 19.3846 20.2623C19.2231 19.7795 19.0615 19.259 18.9 18.7205ZM35.4487 0H7.6282C3.41026 0 0 3.41026 0 7.6282V34.3718C0 38.5897 3.41026 42 7.6282 42H35.4487C39.6667 42 43.0769 38.5897 43.0769 34.3718V7.6282C43.0769 3.41026 39.6667 0 35.4487 0ZM26.3846 29.6692H22.6315C22.5077 29.6872 22.382 29.5974 22.3462 29.4718L20.8744 25.2H14.1974L12.8333 29.4179C12.7974 29.5795 12.6538 29.6872 12.4923 29.671H9.11795C8.92051 29.671 8.86667 29.5615 8.92051 29.3479L14.7 12.7077C14.7538 12.5282 14.8077 12.3308 14.8795 12.1154C14.9513 11.7385 14.9872 11.3436 14.9872 10.9487C14.9692 10.859 15.041 10.7692 15.1308 10.7513H19.7795C19.9231 10.7513 19.9949 10.8051 20.0128 10.8949L26.5641 29.3821C26.6179 29.5777 26.5641 29.6692 26.3846 29.6692ZM32.4872 29.4C32.4872 29.5974 32.4172 29.6872 32.2556 29.6872H28.7359C28.5564 29.6872 28.4667 29.5777 28.4667 29.4V15.5795C28.4667 15.4 28.5403 15.3282 28.7018 15.3282H32.2556C32.4172 15.3282 32.4872 15.4179 32.4872 15.5795V29.4ZM32.112 13.1923C31.9001 13.4076 31.6445 13.575 31.3625 13.6834C31.0805 13.7917 30.7785 13.8385 30.4769 13.8205C29.8846 13.8385 29.3103 13.6051 28.8777 13.1923C28.4665 12.7427 28.2474 12.15 28.2674 11.541C28.2495 10.9308 28.4828 10.3564 28.9118 9.94359C29.3462 9.53077 29.9205 9.31538 30.5128 9.31538C31.2146 9.31538 31.7495 9.53077 32.1462 9.94359C32.541 10.3744 32.7564 10.9487 32.7385 11.541C32.7564 12.1513 32.541 12.7436 32.112 13.1923Z" fill="url(#paint0_linear_2003_3)"/>
<defs>
<linearGradient id="paint0_linear_2003_3" x1="21.5385" y1="0" x2="21.5385" y2="42" gradientUnits="userSpaceOnUse">
<stop stop-color="#EAEAEA"/>
<stop offset="1" stop-color="#565554"/>
</linearGradient>
</defs>
</svg>
